HIERARCHY
ROOT hip
{
  OFFSET 237.589 82.1008 50.575
  CHANNELS 6 Xposition Yposition Zposition Zrotation Xrotation Yrotation
  JOINT abdomen
  {
    OFFSET 0 20.6881 -0.73152
    CHANNELS 3 Zrotation Xrotation Yrotation
    JOINT chest
    {
      OFFSET 0 11.7043 -0.48768
      CHANNELS 3 Zrotation Xrotation Yrotation
      JOINT neck
      {
        OFFSET 0 22.1894 -2.19456
        CHANNELS 3 Zrotation Xrotation Yrotation
        JOINT head
        {
          OFFSET -0.24384 7.07133 1.2192
          CHANNELS 3 Zrotation Xrotation Yrotation
          JOINT leftEye
          {
            OFFSET 4.14528 8.04674 8.04672
            CHANNELS 3 Zrotation Xrotation Yrotation
            End Site
            {
              OFFSET 1 0 0
            }
          }
          JOINT rightEye
          {
            OFFSET -3.6576 8.04674 8.04672
            CHANNELS 3 Zrotation Xrotation Yrotation
            End Site
            {
              OFFSET 1 0 0
            }
          }
        }
      }
      JOINT rCollar
      {
        OFFSET -2.68224 19.2634 -4.8768
        CHANNELS 3 Zrotation Xrotation Yrotation
        JOINT rShldr
        {
          OFFSET -8.77824 -1.95073 1.46304
          CHANNELS 3 Zrotation Xrotation Yrotation
          JOINT rForeArm
          {
            OFFSET -28.1742 -1.7115 0.48768
            CHANNELS 3 Zrotation Xrotation Yrotation
            JOINT rHand
            {
              OFFSET -22.5879 0.773209 7.07136
              CHANNELS 3 Zrotation Xrotation Yrotation
              JOINT rThumb1
              {
                OFFSET -1.2192 -0.487915 3.41376
                CHANNELS 3 Zrotation Xrotation Yrotation
                JOINT rThumb2
                {
                  OFFSET -3.37035 -0.52449 3.41376
                  CHANNELS 3 Zrotation Xrotation Yrotation
                  End Site
                  {
                    OFFSET -1.78271 -1.18214 1.43049
                  }
                }
              }
              JOINT rIndex1
              {
                OFFSET -7.75947 0.938293 5.60832
                CHANNELS 3 Zrotation Xrotation Yrotation
                JOINT rIndex2
                {
                  OFFSET -2.54057 -0.884171 1.56538
                  CHANNELS 3 Zrotation Xrotation Yrotation
                  End Site
                  {
                    OFFSET -1.62519 -0.234802 1.16502
                  }
                }
              }
              JOINT rMid1
              {
                OFFSET -8.24714 1.18213 3.41376
                CHANNELS 3 Zrotation Xrotation Yrotation
                JOINT rMid2
                {
                  OFFSET -3.10165 -0.590103 1.0647
                  CHANNELS 3 Zrotation Xrotation Yrotation
                  End Site
                  {
                    OFFSET -2.48547 -0.328903 0.83742
                  }
                }
              }
              JOINT rRing1
              {
                OFFSET -8.82822 0.546677 1.51678
                CHANNELS 3 Zrotation Xrotation Yrotation
                JOINT rRing2
                {
                  OFFSET -2.60934 -0.819778 -0.0198488
                  CHANNELS 3 Zrotation Xrotation Yrotation
                  End Site
                  {
                    OFFSET -2.33842 -0.294052 0.168128
                  }
                }
              }
              JOINT rPinky1
              {
                OFFSET -8.27202 -0.0477905 -0.4584
                CHANNELS 3 Zrotation Xrotation Yrotation
                JOINT rPinky2
                {
                  OFFSET -1.82734 -0.647385 -0.700984
                  CHANNELS 3 Zrotation Xrotation Yrotation
                  End Site
                  {
                    OFFSET -1.69225 -0.51767 -0.607171
                  }
                }
              }
            }
          }
        }
      }
      JOINT lCollar
      {
        OFFSET 2.68224 19.2634 -4.8768
        CHANNELS 3 Zrotation Xrotation Yrotation
        JOINT lShldr
        {
          OFFSET 8.77824 -1.95073 1.46304
          CHANNELS 3 Zrotation Xrotation Yrotation
          JOINT lForeArm
          {
            OFFSET 28.1742 -1.7115 0.48768
            CHANNELS 3 Zrotation Xrotation Yrotation
            JOINT lHand
            {
              OFFSET 22.5879 0.773209 7.07136
              CHANNELS 3 Zrotation Xrotation Yrotation
              JOINT lThumb1
              {
                OFFSET 1.2192 -0.487915 3.41376
                CHANNELS 3 Zrotation Xrotation Yrotation
                JOINT lThumb2
                {
                  OFFSET 3.37035 -0.52449 3.41376
                  CHANNELS 3 Zrotation Xrotation Yrotation
                  End Site
                  {
                    OFFSET 1.78271 -1.18214 1.43049
                  }
                }
              }
              JOINT lIndex1
              {
                OFFSET 7.75947 0.938293 5.60832
                CHANNELS 3 Zrotation Xrotation Yrotation
                JOINT lIndex2
                {
                  OFFSET 2.54057 -0.884171 1.56538
                  CHANNELS 3 Zrotation Xrotation Yrotation
                  End Site
                  {
                    OFFSET 1.62519 -0.234802 1.16502
                  }
                }
              }
              JOINT lMid1
              {
                OFFSET 8.24714 1.18213 3.41376
                CHANNELS 3 Zrotation Xrotation Yrotation
                JOINT lMid2
                {
                  OFFSET 3.10165 -0.590103 1.0647
                  CHANNELS 3 Zrotation Xrotation Yrotation
                  End Site
                  {
                    OFFSET 2.48547 -0.328903 0.83742
                  }
                }
              }
              JOINT lRing1
              {
                OFFSET 8.82822 0.546677 1.51678
                CHANNELS 3 Zrotation Xrotation Yrotation
                JOINT lRing2
                {
                  OFFSET 2.60934 -0.819778 -0.0198488
                  CHANNELS 3 Zrotation Xrotation Yrotation
                  End Site
                  {
                    OFFSET 2.33842 -0.294052 0.168128
                  }
                }
              }
              JOINT lPinky1
              {
                OFFSET 8.27202 -0.0477905 -0.4584
                CHANNELS 3 Zrotation Xrotation Yrotation
                JOINT lPinky2
                {
                  OFFSET 1.82734 -0.647385 -0.700984
                  CHANNELS 3 Zrotation Xrotation Yrotation
                  End Site
                  {
                    OFFSET 1.69225 -0.51767 -0.607171
                  }
                }
              }
            }
          }
        }
      }
    }
  }
  JOINT rButtock
  {
    OFFSET -8.77824 4.35084 1.2192
    CHANNELS 3 Zrotation Xrotation Yrotation
    JOINT rThigh
    {
      OFFSET 0 -1.70687 -2.19456
      CHANNELS 3 Zrotation Xrotation Yrotation
      JOINT rShin
      {
        OFFSET 0 -36.8199 0.73152
        CHANNELS 3 Zrotation Xrotation Yrotation
        JOINT rFoot
        {
          OFFSET 0.73152 -45.1104 -5.12064
          CHANNELS 3 Zrotation Xrotation Yrotation
          End Site
          {
            OFFSET -1.1221 -3.69964 12.103
          }
        }
      }
    }
  }
  JOINT lButtock
  {
    OFFSET 8.77824 4.35084 1.2192
    CHANNELS 3 Zrotation Xrotation Yrotation
    JOINT lThigh
    {
      OFFSET 0 -1.70687 -2.19456
      CHANNELS 3 Zrotation Xrotation Yrotation
      JOINT lShin
      {
        OFFSET 0 -36.8199 0.73152
        CHANNELS 3 Zrotation Xrotation Yrotation
        JOINT lFoot
        {
          OFFSET -0.73152 -45.1104 -5.12064
          CHANNELS 3 Zrotation Xrotation Yrotation
          End Site
          {
            OFFSET 1.1221 -3.69964 12.103
          }
        }
      }
    }
  }
}
MOTION
Frames:	4
Frame Time:	0.00833333
-117.875 67.0689 48.8709 55.1522 17.1958 -74.2278 2.57199 -11.9105 9.91314 0.219456 7.23483 2.65054 -10.8507 10.4793 -2.49492 31.8677 -61.1145 16.7424 -0 0 0 -0 0 0 -2.83121e-013 -4.82907e-012 8.24091e-013 65.5367 -0.719082 34.194 -22.3901 -16.4325 44.5603 -0.499101 -21.9732 -3.2104 -4.57329e-009 -7.64895e-009 5.93942e-009 -8.00899e-009 -1.30928e-008 1.01929e-008 -4.57328e-009 -7.64895e-009 5.93941e-009 7.73091 5.47488 0.417314 -4.57329e-009 -7.64895e-009 5.93942e-009 2.90554 0.965183 0.102902 -4.57328e-009 -7.64895e-009 5.93942e-009 10.2786 0.731801 0.0259123 -4.57329e-009 -7.64895e-009 5.93944e-009 2.22167 -0.733487 -0.20892 -2.83229e-013 -4.8291e-012 8.23761e-013 -90.8911 34.4736 29.8882 11.9858 -5.43789 -21.5836 0.200363 -12.6532 1.80804 -7.00052e-011 7.42892e-009 5.43228e-009 -1.77052e-010 1.28888e-008 9.3949e-009 -7.00141e-011 7.42891e-009 5.43229e-009 -7.73091 5.47488 -0.417314 -7.00052e-011 7.42892e-009 5.43228e-009 -2.90554 0.965183 -0.102902 -7.00139e-011 7.42891e-009 5.43228e-009 -10.2786 0.731801 -0.0259123 -7.0004e-011 7.42892e-009 5.43228e-009 -2.22167 -0.733487 0.20892 -2.03217e-016 0 -3.88251e-019 -42.49 -55.4377 -52.0552 -0.849448 58.089 1.82814 -4.13972 -23.2669 -7.46333 2.03217e-016 0 3.88251e-019 144.159 -56.5843 177.933 167.846 84.2444 -167.907 0.266229 4.95935 -1.01099 
-115.398 67.602 50.0847 55.0558 16.4179 -74.5045 1.43767 -11.7334 8.92298 0.878669 7.17048 2.35386 -10.5858 10.6517 -2.10438 32.797 -60.9012 18.0834 -0 0 0 -0 0 0 -2.35311e-013 -4.71237e-012 7.68303e-013 66.223 0.871435 31.4697 -23.4126 -18.0383 47.8015 -0.988677 -27.03 -4.11173 -4.55173e-009 -6.555e-009 5.78769e-009 -7.97367e-009 -1.11896e-008 9.92114e-009 -4.55173e-009 -6.555e-009 5.78768e-009 7.73091 5.47488 0.417314 -4.55173e-009 -6.555e-009 5.78769e-009 2.90554 0.965183 0.102902 -4.55173e-009 -6.555e-009 5.78769e-009 10.2786 0.731801 0.0259123 -4.55173e-009 -6.555e-009 5.78771e-009 2.22167 -0.733487 -0.20892 -2.35376e-013 -4.71241e-012 7.68005e-013 -91.7382 33.2954 31.1758 11.737 -5.26591 -21.102 0.186823 -12.2232 1.74467 -1.34736e-009 8.62347e-009 5.78557e-009 -2.38806e-009 1.49419e-008 9.99451e-009 -1.34737e-009 8.62345e-009 5.78558e-009 -7.73091 5.47488 -0.417314 -1.34736e-009 8.62347e-009 5.78557e-009 -2.90554 0.965183 -0.102902 -1.34737e-009 8.62345e-009 5.78557e-009 -10.2786 0.731801 -0.0259123 -1.34736e-009 8.62347e-009 5.78557e-009 -2.22167 -0.733487 0.20892 -2.03217e-016 0 -3.88251e-019 -36.6751 -52.8126 -46.0719 -0.67429 54.5037 1.63615 -3.6384 -21.4374 -6.81379 2.03217e-016 0 3.88251e-019 143.784 -57.2204 178.668 138.45 88.29 -138.48 0.0532583 4.94616 -2.88097 
-112.872 68.248 51.2364 54.8451 15.6992 -74.7601 0.207469 -11.4817 7.75405 1.59911 7.07538 2.00668 -10.3408 10.6256 -1.5629 33.1982 -60.1717 19.2688 -0 0 0 -0 0 0 -1.40041e-013 -3.38866e-012 4.99851e-013 67.9532 1.69535 28.7478 -24.2111 -19.4502 50.4116 -1.1737 -28.408 -4.38546 -3.47865e-009 -2.48658e-009 3.09359e-009 -6.06676e-009 -4.21171e-009 5.28295e-009 -3.47865e-009 -2.48658e-009 3.09358e-009 7.73091 5.47488 0.417314 -3.47865e-009 -2.48658e-009 3.09359e-009 2.90554 0.965183 0.102902 -3.47865e-009 -2.48658e-009 3.09359e-009 10.2786 0.731801 0.0259123 -3.47865e-009 -2.48658e-009 3.0936e-009 2.22167 -0.733487 -0.20892 -1.40067e-013 -3.38868e-012 4.99578e-013 -92.4166 31.4482 32.1166 11.4702 -5.08412 -20.5888 0.176126 -11.8721 1.69307 -1.60365e-009 5.84211e-009 3.6471e-009 -2.81092e-009 1.01157e-008 6.29344e-009 -1.60366e-009 5.84209e-009 3.6471e-009 -7.73091 5.47488 -0.417314 -1.60365e-009 5.8421e-009 3.64709e-009 -2.90554 0.965183 -0.102902 -1.60366e-009 5.84209e-009 3.6471e-009 -10.2786 0.731801 -0.0259123 -1.60365e-009 5.84211e-009 3.64709e-009 -2.22167 -0.733487 0.20892 -2.03217e-016 0 -3.88251e-019 -31.3843 -49.9579 -40.1409 -0.528184 50.705 1.44892 -2.99178 -18.9287 -5.8788 2.03217e-016 0 3.88251e-019 142.786 -58.2776 179.172 17.6955 86.5363 -17.6982 -0.085589 4.99654 -4.61737 
-110.259 68.8384 52.3618 54.4995 15.0003 -74.9677 -1.07294 -11.1092 6.46594 2.33555 6.94331 1.62745 -10.0617 10.445 -0.908385 33.1161 -59.0414 20.2654 -0 0 0 -0 0 0 -5.91371e-016 -1.19417e-012 7.60693e-014 70.5771 1.77075 25.9804 -24.8841 -20.8124 52.6158 -1.11403 -27.6443 -4.2518 -1.65532e-009 3.77517e-009 -1.41141e-009 -2.82633e-009 6.51341e-009 -2.46721e-009 -1.65531e-009 3.77517e-009 -1.41142e-009 7.73091 5.47488 0.417314 -1.65532e-009 3.77516e-009 -1.41141e-009 2.90554 0.965183 0.102902 -1.65531e-009 3.77517e-009 -1.41141e-009 10.2786 0.731801 0.0259123 -1.65532e-009 3.77517e-009 -1.4114e-009 2.22167 -0.733487 -0.20892 -5.79628e-016 -1.19417e-012 7.58209e-014 -92.9158 29.131 32.7641 11.1904 -4.89633 -20.0542 0.165888 -11.5228 1.64188 -1.35296e-009 4.32645e-010 -2.38358e-010 -2.34126e-009 7.3964e-010 -4.24647e-010 -1.35296e-009 4.32634e-010 -2.3835e-010 -7.73091 5.47488 -0.417314 -1.35295e-009 4.32637e-010 -2.38367e-010 -2.90554 0.965183 -0.102902 -1.35297e-009 4.32634e-010 -2.38357e-010 -10.2786 0.731801 -0.0259123 -1.35296e-009 4.32645e-010 -2.38364e-010 -2.22167 -0.733487 0.20892 -2.03217e-016 0 -3.88251e-019 -26.6597 -46.6865 -34.3126 -0.414913 46.6591 1.27214 -2.31415 -15.8186 -4.77863 2.03217e-016 0 3.88251e-019 141.192 -59.7878 179.333 6.77045 81.787 -6.74453 -0.172055 5.112 -6.35415 
